<svg width="12" height="13" viewBox="0 0 12 13" fill="none" xmlns="http://www.w3.org/2000/svg">
<path d="M6 0.5C2.68661 0.5 0 3.18661 0 6.5C0 9.81339 2.68661 12.5 6 12.5C9.31339 12.5 12 9.81339 12 6.5C12 3.18661 9.31339 0.5 6 0.5ZM6 11.4821C3.24911 11.4821 1.01786 9.25089 1.01786 6.5C1.01786 3.74911 3.24911 1.51786 6 1.51786C8.75089 1.51786 10.9821 3.74911 10.9821 6.5C10.9821 9.25089 8.75089 11.4821 6 11.4821Z" fill="#7A7A7A"/>
<path d="M8.33959 8.19525L6.42977 6.81445V3.49972C6.42977 3.44079 6.38156 3.39258 6.32263 3.39258H5.67843C5.6195 3.39258 5.57129 3.44079 5.57129 3.49972V7.18811C5.57129 7.22293 5.58736 7.25508 5.61549 7.27517L7.83066 8.89034C7.87888 8.92517 7.94584 8.91445 7.98066 8.86758L8.3637 8.34525C8.39852 8.2957 8.38781 8.22874 8.33959 8.19525Z" fill="#7A7A7A"/>
</svg>
